<svg width="77" height="73" viewBox="0 0 77 73" fill="none" xmlns="http://www.w3.org/2000/svg">
<mask id="mask0_299_13244" style="mask-type:luminance" maskUnits="userSpaceOnUse" x="0" y="0" width="77" height="73">
<path d="M77 0H0V72.3886H77V0Z" fill="white"/>
</mask>
<g mask="url(#mask0_299_13244)">
<path d="M61.7337 40.1455C61.0627 40.118 60.3862 40.1455 59.7097 40.1455C56.9597 40.1455 56.9597 40.1455 57.0202 37.3515C57.1377 34.1203 56.5558 30.9018 55.3141 27.9164C54.0725 24.9309 52.2005 22.2489 49.8262 20.054V20.0265L49.3312 19.5865C46.8582 17.4173 43.9397 15.8166 40.7812 14.8971C37.6227 13.9776 34.301 13.7616 31.0501 14.2645C27.7992 14.7673 24.698 15.9767 21.9649 17.8075C19.2318 19.6383 16.9333 22.046 15.2312 24.861L15.1927 24.9215C15.0772 25.1195 14.9562 25.3175 14.8462 25.5155C12.6558 29.3892 11.6697 33.8278 12.0137 38.2645C12.0577 39.0015 12.5637 40.0905 11.0677 40.195C9.77523 40.283 8.80723 40.9265 9.03273 42.395C9.25823 43.8635 10.3857 44.045 11.6452 44.045C13.5977 44.0065 15.5557 44.045 17.5082 44.045C18.7622 44.045 19.6642 44.551 19.7082 45.8765C19.7467 47.0755 18.9822 47.741 17.7997 47.7575C16.3312 47.7575 15.3742 48.434 15.4897 49.9135C15.6052 51.393 16.8152 51.5635 18.0637 51.5305C21.5672 51.503 25.0707 51.4975 28.5797 51.5305C29.8722 51.5305 30.8292 52.0805 30.7522 53.582C30.6807 54.9515 29.7952 55.386 28.5522 55.3805C26.3962 55.3805 24.2402 55.3805 22.0787 55.3805C20.7092 55.3805 19.3672 55.452 19.3617 57.2505C19.3562 59.049 20.7147 59.1095 22.0787 59.104C29.3607 59.104 36.6427 59.104 43.9192 59.104C47.0872 59.104 50.2552 59.104 53.4232 59.104C54.7102 59.104 55.7772 58.8675 55.8157 57.333C55.8597 55.683 54.7157 55.353 53.3737 55.386C52.8237 55.386 52.2737 55.386 51.7567 55.386H42.0492C40.7787 55.386 39.9372 54.836 39.8987 53.516C39.8602 52.196 40.7347 51.624 41.9667 51.536C42.3682 51.503 42.7752 51.536 43.1767 51.536C44.4087 51.536 45.5582 51.3985 45.6572 49.842C45.7672 48.192 44.6672 47.8015 43.3032 47.796C42.0602 47.73 41.3397 47.004 41.3397 45.904C41.3397 44.6555 42.1592 43.979 43.4737 44.0175C44.2822 44.0175 45.0962 44.0175 45.9047 44.0175C51.1627 44.0175 56.4207 44.0175 61.6787 44.0175C63.0042 44.0175 63.9557 43.5995 63.9997 42.12C64.0437 40.6405 62.9987 40.2005 61.7337 40.1455Z" fill="#EB6D4A"/>
<path d="M60.95 51.4914C61.9741 51.4914 62.8043 50.6611 62.8043 49.637C62.8043 48.6129 61.9741 47.7827 60.95 47.7827C59.9259 47.7827 59.0957 48.6129 59.0957 49.637C59.0957 50.6611 59.9259 51.4914 60.95 51.4914Z" fill="#EB6D4A"/>
<path d="M65.626 51.4914C66.6502 51.4914 67.4804 50.6611 67.4804 49.637C67.4804 48.6129 66.6502 47.7827 65.626 47.7827C64.6019 47.7827 63.7717 48.6129 63.7717 49.637C63.7717 50.6611 64.6019 51.4914 65.626 51.4914Z" fill="#EB6D4A"/>
<path d="M65.7415 47.7827H60.7603V51.4914H65.7415V47.7827Z" fill="#EB6D4A"/>
<path d="M50.0245 51.4914C51.0486 51.4914 51.8788 50.6611 51.8788 49.637C51.8788 48.6129 51.0486 47.7827 50.0245 47.7827C49.0004 47.7827 48.1702 48.6129 48.1702 49.637C48.1702 50.6611 49.0004 51.4914 50.0245 51.4914Z" fill="#EB6D4A"/>
<path d="M54.7003 51.4914C55.7244 51.4914 56.5546 50.6611 56.5546 49.637C56.5546 48.6129 55.7244 47.7827 54.7003 47.7827C53.6762 47.7827 52.8459 48.6129 52.8459 49.637C52.8459 50.6611 53.6762 51.4914 54.7003 51.4914Z" fill="#EB6D4A"/>
<path d="M54.8159 47.7827H49.8347V51.4914H54.8159V47.7827Z" fill="#EB6D4A"/>
</g>
</svg>
