<svg width="754" height="754" viewBox="0 0 754 754" fill="none" xmlns="http://www.w3.org/2000/svg">
<path d="M346.095 24.8301C352.893 -8.27668 400.195 -8.2767 406.994 24.8301L430.8 140.808C438.163 176.675 453.645 209.464 475.261 237.198L540.364 193.389C559.458 180.54 582.085 203.637 569.497 223.129L528.328 286.866C553.246 303.771 581.637 315.999 612.281 322.29L728.259 346.095C761.362 352.895 761.363 400.194 728.259 406.994L612.281 430.8C580.346 437.356 550.854 450.352 525.194 468.379C525.263 468.486 525.331 468.599 525.399 468.705L569.497 536.979C582.083 556.471 559.458 579.573 540.364 566.728L473.477 521.711C472.896 521.32 472.295 520.948 471.71 520.565C451.947 547.283 437.754 578.409 430.8 612.281L406.994 728.259C400.194 761.363 352.895 761.363 346.095 728.259L322.289 612.281C316.118 582.223 304.242 554.326 287.837 529.755L232.918 566.728C213.823 579.58 191.188 556.472 203.777 536.979L241.44 478.653C212.831 455.265 178.521 438.543 140.807 430.8L24.83 406.994C-8.27667 400.195 -8.27664 352.894 24.83 346.095L140.807 322.29C177.221 314.814 210.457 298.961 238.458 276.826L203.777 223.129C191.19 203.636 213.824 180.537 232.918 193.389L284.536 228.13C302.65 202.414 315.712 172.842 322.289 140.808L346.095 24.8301ZM154.092 561.778C174.819 556.225 196.124 568.525 201.678 589.252C207.231 609.979 194.931 631.284 174.204 636.838C153.477 642.392 132.171 630.091 126.617 609.364C121.063 588.637 133.365 567.332 154.092 561.778ZM597.025 561.778C617.752 556.225 639.057 568.525 644.611 589.252C650.165 609.979 637.864 631.284 617.137 636.838C596.41 642.391 575.104 630.091 569.551 609.364C563.997 588.637 576.298 567.332 597.025 561.778ZM389.449 231.719C386.642 218.056 367.122 218.055 364.315 231.719L354.488 279.588C346.748 317.287 317.286 346.747 279.588 354.488L231.711 364.315C218.052 367.124 218.052 386.64 231.711 389.449L279.588 399.276C317.288 407.018 346.748 436.483 354.488 474.184L364.315 522.053C367.123 535.714 386.641 535.714 389.449 522.053L399.276 474.184C407.016 436.482 436.482 407.016 474.183 399.276L522.045 389.449C535.71 386.643 535.71 367.121 522.045 364.315L474.183 354.488C436.483 346.748 407.017 317.288 399.276 279.588L389.449 231.719ZM154.092 126.615C174.819 121.062 196.124 133.362 201.678 154.089C207.231 174.816 194.931 196.121 174.204 201.675C153.477 207.229 132.171 194.928 126.617 174.201C121.063 153.474 133.365 132.169 154.092 126.615ZM597.025 126.615C617.752 121.062 639.057 133.362 644.611 154.089C650.165 174.816 637.864 196.121 617.137 201.675C596.41 207.228 575.104 194.928 569.551 174.201C563.997 153.474 576.298 132.169 597.025 126.615Z" fill="currentColor"/>
</svg>
